<mxfile host="app.diagrams.net" modified="2024-04-28T17:26:15.909Z" agent="Mozilla/5.0 (X11; Linux x86_64; rv:125.0) Gecko/20100101 Firefox/125.0" version="24.3.0" etag="3nB72I9ezfCv5mFDClmI" type="github">
  <diagram name="Page-1" id="_gEOEPybZv3CiejzkFEf">
    <mxGraphModel>
      <root>
        <mxCell id="0" />
        <mxCell id="1" parent="0" />
      </root>
    </mxGraphModel>
  </diagram>
</mxfile>
